<svg width="1181" height="244" viewBox="0 0 1181 244" fill="none" xmlns="http://www.w3.org/2000/svg">
<mask id="mask0_227_12316" style="mask-type:luminance" maskUnits="userSpaceOnUse" x="2" y="2" width="1179" height="242">
<path d="M2.8894 2.35156H1181V243.142H2.8894V2.35156Z" fill="white"/>
</mask>
<g mask="url(#mask0_227_12316)">
<path d="M1047.44 17.0875C1000.64 13.9376 966.174 38.9274 930.591 63.2079C886.889 93.0366 837.228 111.561 782.195 95.7215C733.176 81.6131 695.878 46.0322 650.202 24.7491C604.332 3.37598 549.896 -2.843 499.505 7.53667C471.21 13.3679 444.55 24.1316 417.42 33.3847C286.246 78.1415 140.375 101.152 3.34485 73.9184V242.829H1180.92V49.9374C1119.63 42.2464 1093.74 20.2007 1047.44 17.0875Z" fill="#BA2760"/>
</g>
<mask id="mask1_227_12316" style="mask-type:luminance" maskUnits="userSpaceOnUse" x="0" y="0" width="1181" height="244">
<path d="M0 0H1181V243.143H0V0Z" fill="white"/>
</mask>
<g mask="url(#mask1_227_12316)">
<path d="M1180.92 126.055C1120.33 126.752 1051.84 122.492 993.029 113.329C965.292 109.008 937.504 103.523 911.953 92.9371C878.967 79.2697 850.169 57.3029 815.202 48.4247C785.959 40.9983 753.686 43.5951 726.394 55.5754C700.444 66.9659 679.614 86.0914 654.123 98.2813C615.362 116.81 569.504 117.787 525.578 118.34C465.212 119.098 401.172 119.004 349.667 90.7961C299.114 63.1139 263.649 9.92367 205.131 1.54533C167.852 -3.79152 131.066 11.0502 96.9417 25.5134C65.7421 38.7379 34.5466 51.9624 3.34695 65.1869V242.828H-0.0294189H1180.92V126.055Z" fill="#A10949"/>
</g>
<mask id="mask2_227_12316" style="mask-type:luminance" maskUnits="userSpaceOnUse" x="2" y="66" width="1179" height="178">
<path d="M2.8894 66.8062H1181V243.143H2.8894V66.8062Z" fill="white"/>
</mask>
<g mask="url(#mask2_227_12316)">
<path d="M1176.51 108.389C1149.17 95.7745 1120.38 82.7264 1089.45 79.2549C1056.69 75.5757 1028.02 88.7561 999.993 102.401C940.96 131.14 823.249 186.828 758.371 145.317C742.628 135.248 732.954 119.329 719.086 107.246C618.726 19.8181 495.283 96.471 394.189 134.843C354.655 149.849 310.079 160.625 266.999 154.675C188.409 143.825 117.684 85.5309 3.34485 88.2765V242.828H1180.92V110.624C1179.46 109.804 1177.96 109.056 1176.51 108.389Z" fill="#900C3F"/>
</g>
<mask id="mask3_227_12316" style="mask-type:luminance" maskUnits="userSpaceOnUse" x="2" y="139" width="1179" height="105">
<path d="M2.8894 139.258H1181V243.143H2.8894V139.258Z" fill="white"/>
</mask>
<g mask="url(#mask3_227_12316)">
<path d="M1180.82 213.266C1119.27 219.913 1062.06 182.737 1000.24 178.531C959.072 175.73 918.199 187.734 876.928 186.709C793.596 184.634 716.622 130.023 634.201 141.231C595.196 146.539 560.446 166.221 522.163 174.765C427.877 195.805 331.776 147.074 234.606 146.778C161.556 146.555 74.6445 171.731 3.34485 156.233V242.828H1180.92L1180.82 213.266Z" fill="#900C3F"/>
</g>
</svg>
